<svg width="1200" height="342" viewBox="0 0 1200 342" fill="none" xmlns="http://www.w3.org/2000/svg" role="img" aria-labelledby="title desc">
  <title id="title">TiKVaWeb contribution activity (light)</title>
  <desc id="desc">Custom contribution calendar and activity overview for TiKVaWeb.</desc>
  <defs>
    <pattern id="grid" width="32" height="32" patternUnits="userSpaceOnUse">
      <path d="M32 0H0V32" stroke="#d0d7de" stroke-opacity="0.42"/>
    </pattern>
  </defs>
  <rect x="1" y="1" width="1198" height="340" rx="16" fill="#ffffff" stroke="#d0d7de"/>
  <rect x="1" y="1" width="1198" height="340" rx="16" fill="url(#grid)" opacity="0.13"/>
  <g transform="translate(40 34)">
    <text x="0" y="18" fill="#57606a" font-family="SFMono-Regular, Consolas, Liberation Mono, monospace" font-size="14" font-weight="700">contribution.graph</text>
    <text x="0" y="54" fill="#24292f" font-family="Inter, Segoe UI, Arial, sans-serif" font-size="30" font-weight="850">31 contributions</text>
    <text x="342" y="54" fill="#57606a" font-family="Inter, Segoe UI, Arial, sans-serif" font-size="18" font-weight="700">last 12 months</text>
    <g transform="translate(0 94)" color="#57606a">
      <text x="56" y="0" fill="currentColor" font-family="Inter, Segoe UI, Arial, sans-serif" font-size="14" font-weight="700">Jul</text>
<text x="112" y="0" fill="currentColor" font-family="Inter, Segoe UI, Arial, sans-serif" font-size="14" font-weight="700">Aug</text>
<text x="182" y="0" fill="currentColor" font-family="Inter, Segoe UI, Arial, sans-serif" font-size="14" font-weight="700">Sep</text>
<text x="238" y="0" fill="currentColor" font-family="Inter, Segoe UI, Arial, sans-serif" font-size="14" font-weight="700">Oct</text>
<text x="294" y="0" fill="currentColor" font-family="Inter, Segoe UI, Arial, sans-serif" font-size="14" font-weight="700">Nov</text>
<text x="364" y="0" fill="currentColor" font-family="Inter, Segoe UI, Arial, sans-serif" font-size="14" font-weight="700">Dec</text>
<text x="420" y="0" fill="currentColor" font-family="Inter, Segoe UI, Arial, sans-serif" font-size="14" font-weight="700">Jan</text>
<text x="476" y="0" fill="currentColor" font-family="Inter, Segoe UI, Arial, sans-serif" font-size="14" font-weight="700">Feb</text>
<text x="532" y="0" fill="currentColor" font-family="Inter, Segoe UI, Arial, sans-serif" font-size="14" font-weight="700">Mar</text>
<text x="602" y="0" fill="currentColor" font-family="Inter, Segoe UI, Arial, sans-serif" font-size="14" font-weight="700">Apr</text>
<text x="658" y="0" fill="currentColor" font-family="Inter, Segoe UI, Arial, sans-serif" font-size="14" font-weight="700">May</text>
<text x="728" y="0" fill="currentColor" font-family="Inter, Segoe UI, Arial, sans-serif" font-size="14" font-weight="700">Jun</text>
    </g>
    <g transform="translate(0 116)">
      <rect x="0" y="0" width="10" height="10" rx="3" fill="#ebedf0"><title>2025-06-08: 0 contributions</title></rect><rect x="0" y="14" width="10" height="10" rx="3" fill="#ebedf0"><title>2025-06-09: 0 contributions</title></rect><rect x="0" y="28" width="10" height="10" rx="3" fill="#ebedf0"><title>2025-06-10: 0 contributions</title></rect><rect x="0" y="42" width="10" height="10" rx="3" fill="#ebedf0"><title>2025-06-11: 0 contributions</title></rect><rect x="0" y="56" width="10" height="10" rx="3" fill="#ebedf0"><title>2025-06-12: 0 contributions</title></rect><rect x="0" y="70" width="10" height="10" rx="3" fill="#ebedf0"><title>2025-06-13: 0 contributions</title></rect><rect x="0" y="84" width="10" height="10" rx="3" fill="#ebedf0"><title>2025-06-14: 0 contributions</title></rect><rect x="14" y="0" width="10" height="10" rx="3" fill="#ebedf0"><title>2025-06-15: 0 contributions</title></rect><rect x="14" y="14" width="10" height="10" rx="3" fill="#ebedf0"><title>2025-06-16: 0 contributions</title></rect><rect x="14" y="28" width="10" height="10" rx="3" fill="#ebedf0"><title>2025-06-17: 0 contributions</title></rect><rect x="14" y="42" width="10" height="10" rx="3" fill="#ebedf0"><title>2025-06-18: 0 contributions</title></rect><rect x="14" y="56" width="10" height="10" rx="3" fill="#ebedf0"><title>2025-06-19: 0 contributions</title></rect><rect x="14" y="70" width="10" height="10" rx="3" fill="#ebedf0"><title>2025-06-20: 0 contributions</title></rect><rect x="14" y="84" width="10" height="10" rx="3" fill="#ebedf0"><title>2025-06-21: 0 contributions</title></rect><rect x="28" y="0" width="10" height="10" rx="3" fill="#ebedf0"><title>2025-06-22: 0 contributions</title></rect><rect x="28" y="14" width="10" height="10" rx="3" fill="#ebedf0"><title>2025-06-23: 0 contributions</title></rect><rect x="28" y="28" width="10" height="10" rx="3" fill="#ebedf0"><title>2025-06-24: 0 contributions</title></rect><rect x="28" y="42" width="10" height="10" rx="3" fill="#ebedf0"><title>2025-06-25: 0 contributions</title></rect><rect x="28" y="56" width="10" height="10" rx="3" fill="#ebedf0"><title>2025-06-26: 0 contributions</title></rect><rect x="28" y="70" width="10" height="10" rx="3" fill="#216e39"><title>2025-06-27: 10 contributions</title></rect><rect x="28" y="84" width="10" height="10" rx="3" fill="#ebedf0"><title>2025-06-28: 0 contributions</title></rect><rect x="42" y="0" width="10" height="10" rx="3" fill="#ebedf0"><title>2025-06-29: 0 contributions</title></rect><rect x="42" y="14" width="10" height="10" rx="3" fill="#ebedf0"><title>2025-06-30: 0 contributions</title></rect><rect x="42" y="28" width="10" height="10" rx="3" fill="#ebedf0"><title>2025-07-01: 0 contributions</title></rect><rect x="42" y="42" width="10" height="10" rx="3" fill="#ebedf0"><title>2025-07-02: 0 contributions</title></rect><rect x="42" y="56" width="10" height="10" rx="3" fill="#ebedf0"><title>2025-07-03: 0 contributions</title></rect><rect x="42" y="70" width="10" height="10" rx="3" fill="#ebedf0"><title>2025-07-04: 0 contributions</title></rect><rect x="42" y="84" width="10" height="10" rx="3" fill="#ebedf0"><title>2025-07-05: 0 contributions</title></rect><rect x="56" y="0" width="10" height="10" rx="3" fill="#ebedf0"><title>2025-07-06: 0 contributions</title></rect><rect x="56" y="14" width="10" height="10" rx="3" fill="#ebedf0"><title>2025-07-07: 0 contributions</title></rect><rect x="56" y="28" width="10" height="10" rx="3" fill="#ebedf0"><title>2025-07-08: 0 contributions</title></rect><rect x="56" y="42" width="10" height="10" rx="3" fill="#ebedf0"><title>2025-07-09: 0 contributions</title></rect><rect x="56" y="56" width="10" height="10" rx="3" fill="#ebedf0"><title>2025-07-10: 0 contributions</title></rect><rect x="56" y="70" width="10" height="10" rx="3" fill="#ebedf0"><title>2025-07-11: 0 contributions</title></rect><rect x="56" y="84" width="10" height="10" rx="3" fill="#ebedf0"><title>2025-07-12: 0 contributions</title></rect><rect x="70" y="0" width="10" height="10" rx="3" fill="#ebedf0"><title>2025-07-13: 0 contributions</title></rect><rect x="70" y="14" width="10" height="10" rx="3" fill="#ebedf0"><title>2025-07-14: 0 contributions</title></rect><rect x="70" y="28" width="10" height="10" rx="3" fill="#ebedf0"><title>2025-07-15: 0 contributions</title></rect><rect x="70" y="42" width="10" height="10" rx="3" fill="#ebedf0"><title>2025-07-16: 0 contributions</title></rect><rect x="70" y="56" width="10" height="10" rx="3" fill="#ebedf0"><title>2025-07-17: 0 contributions</title></rect><rect x="70" y="70" width="10" height="10" rx="3" fill="#ebedf0"><title>2025-07-18: 0 contributions</title></rect><rect x="70" y="84" width="10" height="10" rx="3" fill="#ebedf0"><title>2025-07-19: 0 contributions</title></rect><rect x="84" y="0" width="10" height="10" rx="3" fill="#ebedf0"><title>2025-07-20: 0 contributions</title></rect><rect x="84" y="14" width="10" height="10" rx="3" fill="#ebedf0"><title>2025-07-21: 0 contributions</title></rect><rect x="84" y="28" width="10" height="10" rx="3" fill="#ebedf0"><title>2025-07-22: 0 contributions</title></rect><rect x="84" y="42" width="10" height="10" rx="3" fill="#ebedf0"><title>2025-07-23: 0 contributions</title></rect><rect x="84" y="56" width="10" height="10" rx="3" fill="#ebedf0"><title>2025-07-24: 0 contributions</title></rect><rect x="84" y="70" width="10" height="10" rx="3" fill="#ebedf0"><title>2025-07-25: 0 contributions</title></rect><rect x="84" y="84" width="10" height="10" rx="3" fill="#ebedf0"><title>2025-07-26: 0 contributions</title></rect><rect x="98" y="0" width="10" height="10" rx="3" fill="#ebedf0"><title>2025-07-27: 0 contributions</title></rect><rect x="98" y="14" width="10" height="10" rx="3" fill="#ebedf0"><title>2025-07-28: 0 contributions</title></rect><rect x="98" y="28" width="10" height="10" rx="3" fill="#ebedf0"><title>2025-07-29: 0 contributions</title></rect><rect x="98" y="42" width="10" height="10" rx="3" fill="#ebedf0"><title>2025-07-30: 0 contributions</title></rect><rect x="98" y="56" width="10" height="10" rx="3" fill="#ebedf0"><title>2025-07-31: 0 contributions</title></rect><rect x="98" y="70" width="10" height="10" rx="3" fill="#ebedf0"><title>2025-08-01: 0 contributions</title></rect><rect x="98" y="84" width="10" height="10" rx="3" fill="#ebedf0"><title>2025-08-02: 0 contributions</title></rect><rect x="112" y="0" width="10" height="10" rx="3" fill="#ebedf0"><title>2025-08-03: 0 contributions</title></rect><rect x="112" y="14" width="10" height="10" rx="3" fill="#ebedf0"><title>2025-08-04: 0 contributions</title></rect><rect x="112" y="28" width="10" height="10" rx="3" fill="#ebedf0"><title>2025-08-05: 0 contributions</title></rect><rect x="112" y="42" width="10" height="10" rx="3" fill="#ebedf0"><title>2025-08-06: 0 contributions</title></rect><rect x="112" y="56" width="10" height="10" rx="3" fill="#ebedf0"><title>2025-08-07: 0 contributions</title></rect><rect x="112" y="70" width="10" height="10" rx="3" fill="#ebedf0"><title>2025-08-08: 0 contributions</title></rect><rect x="112" y="84" width="10" height="10" rx="3" fill="#ebedf0"><title>2025-08-09: 0 contributions</title></rect><rect x="126" y="0" width="10" height="10" rx="3" fill="#ebedf0"><title>2025-08-10: 0 contributions</title></rect><rect x="126" y="14" width="10" height="10" rx="3" fill="#ebedf0"><title>2025-08-11: 0 contributions</title></rect><rect x="126" y="28" width="10" height="10" rx="3" fill="#ebedf0"><title>2025-08-12: 0 contributions</title></rect><rect x="126" y="42" width="10" height="10" rx="3" fill="#ebedf0"><title>2025-08-13: 0 contributions</title></rect><rect x="126" y="56" width="10" height="10" rx="3" fill="#ebedf0"><title>2025-08-14: 0 contributions</title></rect><rect x="126" y="70" width="10" height="10" rx="3" fill="#ebedf0"><title>2025-08-15: 0 contributions</title></rect><rect x="126" y="84" width="10" height="10" rx="3" fill="#ebedf0"><title>2025-08-16: 0 contributions</title></rect><rect x="140" y="0" width="10" height="10" rx="3" fill="#ebedf0"><title>2025-08-17: 0 contributions</title></rect><rect x="140" y="14" width="10" height="10" rx="3" fill="#ebedf0"><title>2025-08-18: 0 contributions</title></rect><rect x="140" y="28" width="10" height="10" rx="3" fill="#ebedf0"><title>2025-08-19: 0 contributions</title></rect><rect x="140" y="42" width="10" height="10" rx="3" fill="#ebedf0"><title>2025-08-20: 0 contributions</title></rect><rect x="140" y="56" width="10" height="10" rx="3" fill="#ebedf0"><title>2025-08-21: 0 contributions</title></rect><rect x="140" y="70" width="10" height="10" rx="3" fill="#ebedf0"><title>2025-08-22: 0 contributions</title></rect><rect x="140" y="84" width="10" height="10" rx="3" fill="#ebedf0"><title>2025-08-23: 0 contributions</title></rect><rect x="154" y="0" width="10" height="10" rx="3" fill="#ebedf0"><title>2025-08-24: 0 contributions</title></rect><rect x="154" y="14" width="10" height="10" rx="3" fill="#ebedf0"><title>2025-08-25: 0 contributions</title></rect><rect x="154" y="28" width="10" height="10" rx="3" fill="#ebedf0"><title>2025-08-26: 0 contributions</title></rect><rect x="154" y="42" width="10" height="10" rx="3" fill="#ebedf0"><title>2025-08-27: 0 contributions</title></rect><rect x="154" y="56" width="10" height="10" rx="3" fill="#ebedf0"><title>2025-08-28: 0 contributions</title></rect><rect x="154" y="70" width="10" height="10" rx="3" fill="#ebedf0"><title>2025-08-29: 0 contributions</title></rect><rect x="154" y="84" width="10" height="10" rx="3" fill="#ebedf0"><title>2025-08-30: 0 contributions</title></rect><rect x="168" y="0" width="10" height="10" rx="3" fill="#ebedf0"><title>2025-08-31: 0 contributions</title></rect><rect x="168" y="14" width="10" height="10" rx="3" fill="#ebedf0"><title>2025-09-01: 0 contributions</title></rect><rect x="168" y="28" width="10" height="10" rx="3" fill="#ebedf0"><title>2025-09-02: 0 contributions</title></rect><rect x="168" y="42" width="10" height="10" rx="3" fill="#ebedf0"><title>2025-09-03: 0 contributions</title></rect><rect x="168" y="56" width="10" height="10" rx="3" fill="#ebedf0"><title>2025-09-04: 0 contributions</title></rect><rect x="168" y="70" width="10" height="10" rx="3" fill="#ebedf0"><title>2025-09-05: 0 contributions</title></rect><rect x="168" y="84" width="10" height="10" rx="3" fill="#ebedf0"><title>2025-09-06: 0 contributions</title></rect><rect x="182" y="0" width="10" height="10" rx="3" fill="#ebedf0"><title>2025-09-07: 0 contributions</title></rect><rect x="182" y="14" width="10" height="10" rx="3" fill="#ebedf0"><title>2025-09-08: 0 contributions</title></rect><rect x="182" y="28" width="10" height="10" rx="3" fill="#ebedf0"><title>2025-09-09: 0 contributions</title></rect><rect x="182" y="42" width="10" height="10" rx="3" fill="#ebedf0"><title>2025-09-10: 0 contributions</title></rect><rect x="182" y="56" width="10" height="10" rx="3" fill="#ebedf0"><title>2025-09-11: 0 contributions</title></rect><rect x="182" y="70" width="10" height="10" rx="3" fill="#ebedf0"><title>2025-09-12: 0 contributions</title></rect><rect x="182" y="84" width="10" height="10" rx="3" fill="#ebedf0"><title>2025-09-13: 0 contributions</title></rect><rect x="196" y="0" width="10" height="10" rx="3" fill="#ebedf0"><title>2025-09-14: 0 contributions</title></rect><rect x="196" y="14" width="10" height="10" rx="3" fill="#ebedf0"><title>2025-09-15: 0 contributions</title></rect><rect x="196" y="28" width="10" height="10" rx="3" fill="#ebedf0"><title>2025-09-16: 0 contributions</title></rect><rect x="196" y="42" width="10" height="10" rx="3" fill="#ebedf0"><title>2025-09-17: 0 contributions</title></rect><rect x="196" y="56" width="10" height="10" rx="3" fill="#ebedf0"><title>2025-09-18: 0 contributions</title></rect><rect x="196" y="70" width="10" height="10" rx="3" fill="#ebedf0"><title>2025-09-19: 0 contributions</title></rect><rect x="196" y="84" width="10" height="10" rx="3" fill="#ebedf0"><title>2025-09-20: 0 contributions</title></rect><rect x="210" y="0" width="10" height="10" rx="3" fill="#ebedf0"><title>2025-09-21: 0 contributions</title></rect><rect x="210" y="14" width="10" height="10" rx="3" fill="#ebedf0"><title>2025-09-22: 0 contributions</title></rect><rect x="210" y="28" width="10" height="10" rx="3" fill="#ebedf0"><title>2025-09-23: 0 contributions</title></rect><rect x="210" y="42" width="10" height="10" rx="3" fill="#ebedf0"><title>2025-09-24: 0 contributions</title></rect><rect x="210" y="56" width="10" height="10" rx="3" fill="#ebedf0"><title>2025-09-25: 0 contributions</title></rect><rect x="210" y="70" width="10" height="10" rx="3" fill="#ebedf0"><title>2025-09-26: 0 contributions</title></rect><rect x="210" y="84" width="10" height="10" rx="3" fill="#ebedf0"><title>2025-09-27: 0 contributions</title></rect><rect x="224" y="0" width="10" height="10" rx="3" fill="#ebedf0"><title>2025-09-28: 0 contributions</title></rect><rect x="224" y="14" width="10" height="10" rx="3" fill="#ebedf0"><title>2025-09-29: 0 contributions</title></rect><rect x="224" y="28" width="10" height="10" rx="3" fill="#ebedf0"><title>2025-09-30: 0 contributions</title></rect><rect x="224" y="42" width="10" height="10" rx="3" fill="#ebedf0"><title>2025-10-01: 0 contributions</title></rect><rect x="224" y="56" width="10" height="10" rx="3" fill="#ebedf0"><title>2025-10-02: 0 contributions</title></rect><rect x="224" y="70" width="10" height="10" rx="3" fill="#ebedf0"><title>2025-10-03: 0 contributions</title></rect><rect x="224" y="84" width="10" height="10" rx="3" fill="#ebedf0"><title>2025-10-04: 0 contributions</title></rect><rect x="238" y="0" width="10" height="10" rx="3" fill="#ebedf0"><title>2025-10-05: 0 contributions</title></rect><rect x="238" y="14" width="10" height="10" rx="3" fill="#ebedf0"><title>2025-10-06: 0 contributions</title></rect><rect x="238" y="28" width="10" height="10" rx="3" fill="#ebedf0"><title>2025-10-07: 0 contributions</title></rect><rect x="238" y="42" width="10" height="10" rx="3" fill="#ebedf0"><title>2025-10-08: 0 contributions</title></rect><rect x="238" y="56" width="10" height="10" rx="3" fill="#ebedf0"><title>2025-10-09: 0 contributions</title></rect><rect x="238" y="70" width="10" height="10" rx="3" fill="#ebedf0"><title>2025-10-10: 0 contributions</title></rect><rect x="238" y="84" width="10" height="10" rx="3" fill="#ebedf0"><title>2025-10-11: 0 contributions</title></rect><rect x="252" y="0" width="10" height="10" rx="3" fill="#ebedf0"><title>2025-10-12: 0 contributions</title></rect><rect x="252" y="14" width="10" height="10" rx="3" fill="#ebedf0"><title>2025-10-13: 0 contributions</title></rect><rect x="252" y="28" width="10" height="10" rx="3" fill="#40c463"><title>2025-10-14: 3 contributions</title></rect><rect x="252" y="42" width="10" height="10" rx="3" fill="#ebedf0"><title>2025-10-15: 0 contributions</title></rect><rect x="252" y="56" width="10" height="10" rx="3" fill="#ebedf0"><title>2025-10-16: 0 contributions</title></rect><rect x="252" y="70" width="10" height="10" rx="3" fill="#ebedf0"><title>2025-10-17: 0 contributions</title></rect><rect x="252" y="84" width="10" height="10" rx="3" fill="#ebedf0"><title>2025-10-18: 0 contributions</title></rect><rect x="266" y="0" width="10" height="10" rx="3" fill="#ebedf0"><title>2025-10-19: 0 contributions</title></rect><rect x="266" y="14" width="10" height="10" rx="3" fill="#ebedf0"><title>2025-10-20: 0 contributions</title></rect><rect x="266" y="28" width="10" height="10" rx="3" fill="#ebedf0"><title>2025-10-21: 0 contributions</title></rect><rect x="266" y="42" width="10" height="10" rx="3" fill="#ebedf0"><title>2025-10-22: 0 contributions</title></rect><rect x="266" y="56" width="10" height="10" rx="3" fill="#ebedf0"><title>2025-10-23: 0 contributions</title></rect><rect x="266" y="70" width="10" height="10" rx="3" fill="#ebedf0"><title>2025-10-24: 0 contributions</title></rect><rect x="266" y="84" width="10" height="10" rx="3" fill="#ebedf0"><title>2025-10-25: 0 contributions</title></rect><rect x="280" y="0" width="10" height="10" rx="3" fill="#ebedf0"><title>2025-10-26: 0 contributions</title></rect><rect x="280" y="14" width="10" height="10" rx="3" fill="#ebedf0"><title>2025-10-27: 0 contributions</title></rect><rect x="280" y="28" width="10" height="10" rx="3" fill="#ebedf0"><title>2025-10-28: 0 contributions</title></rect><rect x="280" y="42" width="10" height="10" rx="3" fill="#ebedf0"><title>2025-10-29: 0 contributions</title></rect><rect x="280" y="56" width="10" height="10" rx="3" fill="#ebedf0"><title>2025-10-30: 0 contributions</title></rect><rect x="280" y="70" width="10" height="10" rx="3" fill="#ebedf0"><title>2025-10-31: 0 contributions</title></rect><rect x="280" y="84" width="10" height="10" rx="3" fill="#ebedf0"><title>2025-11-01: 0 contributions</title></rect><rect x="294" y="0" width="10" height="10" rx="3" fill="#ebedf0"><title>2025-11-02: 0 contributions</title></rect><rect x="294" y="14" width="10" height="10" rx="3" fill="#ebedf0"><title>2025-11-03: 0 contributions</title></rect><rect x="294" y="28" width="10" height="10" rx="3" fill="#ebedf0"><title>2025-11-04: 0 contributions</title></rect><rect x="294" y="42" width="10" height="10" rx="3" fill="#ebedf0"><title>2025-11-05: 0 contributions</title></rect><rect x="294" y="56" width="10" height="10" rx="3" fill="#ebedf0"><title>2025-11-06: 0 contributions</title></rect><rect x="294" y="70" width="10" height="10" rx="3" fill="#ebedf0"><title>2025-11-07: 0 contributions</title></rect><rect x="294" y="84" width="10" height="10" rx="3" fill="#ebedf0"><title>2025-11-08: 0 contributions</title></rect><rect x="308" y="0" width="10" height="10" rx="3" fill="#ebedf0"><title>2025-11-09: 0 contributions</title></rect><rect x="308" y="14" width="10" height="10" rx="3" fill="#ebedf0"><title>2025-11-10: 0 contributions</title></rect><rect x="308" y="28" width="10" height="10" rx="3" fill="#ebedf0"><title>2025-11-11: 0 contributions</title></rect><rect x="308" y="42" width="10" height="10" rx="3" fill="#ebedf0"><title>2025-11-12: 0 contributions</title></rect><rect x="308" y="56" width="10" height="10" rx="3" fill="#ebedf0"><title>2025-11-13: 0 contributions</title></rect><rect x="308" y="70" width="10" height="10" rx="3" fill="#ebedf0"><title>2025-11-14: 0 contributions</title></rect><rect x="308" y="84" width="10" height="10" rx="3" fill="#ebedf0"><title>2025-11-15: 0 contributions</title></rect><rect x="322" y="0" width="10" height="10" rx="3" fill="#ebedf0"><title>2025-11-16: 0 contributions</title></rect><rect x="322" y="14" width="10" height="10" rx="3" fill="#ebedf0"><title>2025-11-17: 0 contributions</title></rect><rect x="322" y="28" width="10" height="10" rx="3" fill="#ebedf0"><title>2025-11-18: 0 contributions</title></rect><rect x="322" y="42" width="10" height="10" rx="3" fill="#ebedf0"><title>2025-11-19: 0 contributions</title></rect><rect x="322" y="56" width="10" height="10" rx="3" fill="#ebedf0"><title>2025-11-20: 0 contributions</title></rect><rect x="322" y="70" width="10" height="10" rx="3" fill="#ebedf0"><title>2025-11-21: 0 contributions</title></rect><rect x="322" y="84" width="10" height="10" rx="3" fill="#ebedf0"><title>2025-11-22: 0 contributions</title></rect><rect x="336" y="0" width="10" height="10" rx="3" fill="#ebedf0"><title>2025-11-23: 0 contributions</title></rect><rect x="336" y="14" width="10" height="10" rx="3" fill="#ebedf0"><title>2025-11-24: 0 contributions</title></rect><rect x="336" y="28" width="10" height="10" rx="3" fill="#ebedf0"><title>2025-11-25: 0 contributions</title></rect><rect x="336" y="42" width="10" height="10" rx="3" fill="#ebedf0"><title>2025-11-26: 0 contributions</title></rect><rect x="336" y="56" width="10" height="10" rx="3" fill="#ebedf0"><title>2025-11-27: 0 contributions</title></rect><rect x="336" y="70" width="10" height="10" rx="3" fill="#ebedf0"><title>2025-11-28: 0 contributions</title></rect><rect x="336" y="84" width="10" height="10" rx="3" fill="#ebedf0"><title>2025-11-29: 0 contributions</title></rect><rect x="350" y="0" width="10" height="10" rx="3" fill="#ebedf0"><title>2025-11-30: 0 contributions</title></rect><rect x="350" y="14" width="10" height="10" rx="3" fill="#ebedf0"><title>2025-12-01: 0 contributions</title></rect><rect x="350" y="28" width="10" height="10" rx="3" fill="#ebedf0"><title>2025-12-02: 0 contributions</title></rect><rect x="350" y="42" width="10" height="10" rx="3" fill="#ebedf0"><title>2025-12-03: 0 contributions</title></rect><rect x="350" y="56" width="10" height="10" rx="3" fill="#ebedf0"><title>2025-12-04: 0 contributions</title></rect><rect x="350" y="70" width="10" height="10" rx="3" fill="#ebedf0"><title>2025-12-05: 0 contributions</title></rect><rect x="350" y="84" width="10" height="10" rx="3" fill="#ebedf0"><title>2025-12-06: 0 contributions</title></rect><rect x="364" y="0" width="10" height="10" rx="3" fill="#ebedf0"><title>2025-12-07: 0 contributions</title></rect><rect x="364" y="14" width="10" height="10" rx="3" fill="#ebedf0"><title>2025-12-08: 0 contributions</title></rect><rect x="364" y="28" width="10" height="10" rx="3" fill="#ebedf0"><title>2025-12-09: 0 contributions</title></rect><rect x="364" y="42" width="10" height="10" rx="3" fill="#ebedf0"><title>2025-12-10: 0 contributions</title></rect><rect x="364" y="56" width="10" height="10" rx="3" fill="#ebedf0"><title>2025-12-11: 0 contributions</title></rect><rect x="364" y="70" width="10" height="10" rx="3" fill="#ebedf0"><title>2025-12-12: 0 contributions</title></rect><rect x="364" y="84" width="10" height="10" rx="3" fill="#ebedf0"><title>2025-12-13: 0 contributions</title></rect><rect x="378" y="0" width="10" height="10" rx="3" fill="#ebedf0"><title>2025-12-14: 0 contributions</title></rect><rect x="378" y="14" width="10" height="10" rx="3" fill="#ebedf0"><title>2025-12-15: 0 contributions</title></rect><rect x="378" y="28" width="10" height="10" rx="3" fill="#ebedf0"><title>2025-12-16: 0 contributions</title></rect><rect x="378" y="42" width="10" height="10" rx="3" fill="#ebedf0"><title>2025-12-17: 0 contributions</title></rect><rect x="378" y="56" width="10" height="10" rx="3" fill="#ebedf0"><title>2025-12-18: 0 contributions</title></rect><rect x="378" y="70" width="10" height="10" rx="3" fill="#ebedf0"><title>2025-12-19: 0 contributions</title></rect><rect x="378" y="84" width="10" height="10" rx="3" fill="#ebedf0"><title>2025-12-20: 0 contributions</title></rect><rect x="392" y="0" width="10" height="10" rx="3" fill="#ebedf0"><title>2025-12-21: 0 contributions</title></rect><rect x="392" y="14" width="10" height="10" rx="3" fill="#ebedf0"><title>2025-12-22: 0 contributions</title></rect><rect x="392" y="28" width="10" height="10" rx="3" fill="#ebedf0"><title>2025-12-23: 0 contributions</title></rect><rect x="392" y="42" width="10" height="10" rx="3" fill="#ebedf0"><title>2025-12-24: 0 contributions</title></rect><rect x="392" y="56" width="10" height="10" rx="3" fill="#ebedf0"><title>2025-12-25: 0 contributions</title></rect><rect x="392" y="70" width="10" height="10" rx="3" fill="#ebedf0"><title>2025-12-26: 0 contributions</title></rect><rect x="392" y="84" width="10" height="10" rx="3" fill="#ebedf0"><title>2025-12-27: 0 contributions</title></rect><rect x="406" y="0" width="10" height="10" rx="3" fill="#ebedf0"><title>2025-12-28: 0 contributions</title></rect><rect x="406" y="14" width="10" height="10" rx="3" fill="#ebedf0"><title>2025-12-29: 0 contributions</title></rect><rect x="406" y="28" width="10" height="10" rx="3" fill="#ebedf0"><title>2025-12-30: 0 contributions</title></rect><rect x="406" y="42" width="10" height="10" rx="3" fill="#ebedf0"><title>2025-12-31: 0 contributions</title></rect><rect x="406" y="56" width="10" height="10" rx="3" fill="#ebedf0"><title>2026-01-01: 0 contributions</title></rect><rect x="406" y="70" width="10" height="10" rx="3" fill="#ebedf0"><title>2026-01-02: 0 contributions</title></rect><rect x="406" y="84" width="10" height="10" rx="3" fill="#ebedf0"><title>2026-01-03: 0 contributions</title></rect><rect x="420" y="0" width="10" height="10" rx="3" fill="#ebedf0"><title>2026-01-04: 0 contributions</title></rect><rect x="420" y="14" width="10" height="10" rx="3" fill="#ebedf0"><title>2026-01-05: 0 contributions</title></rect><rect x="420" y="28" width="10" height="10" rx="3" fill="#ebedf0"><title>2026-01-06: 0 contributions</title></rect><rect x="420" y="42" width="10" height="10" rx="3" fill="#ebedf0"><title>2026-01-07: 0 contributions</title></rect><rect x="420" y="56" width="10" height="10" rx="3" fill="#ebedf0"><title>2026-01-08: 0 contributions</title></rect><rect x="420" y="70" width="10" height="10" rx="3" fill="#ebedf0"><title>2026-01-09: 0 contributions</title></rect><rect x="420" y="84" width="10" height="10" rx="3" fill="#ebedf0"><title>2026-01-10: 0 contributions</title></rect><rect x="434" y="0" width="10" height="10" rx="3" fill="#ebedf0"><title>2026-01-11: 0 contributions</title></rect><rect x="434" y="14" width="10" height="10" rx="3" fill="#ebedf0"><title>2026-01-12: 0 contributions</title></rect><rect x="434" y="28" width="10" height="10" rx="3" fill="#ebedf0"><title>2026-01-13: 0 contributions</title></rect><rect x="434" y="42" width="10" height="10" rx="3" fill="#ebedf0"><title>2026-01-14: 0 contributions</title></rect><rect x="434" y="56" width="10" height="10" rx="3" fill="#ebedf0"><title>2026-01-15: 0 contributions</title></rect><rect x="434" y="70" width="10" height="10" rx="3" fill="#ebedf0"><title>2026-01-16: 0 contributions</title></rect><rect x="434" y="84" width="10" height="10" rx="3" fill="#ebedf0"><title>2026-01-17: 0 contributions</title></rect><rect x="448" y="0" width="10" height="10" rx="3" fill="#ebedf0"><title>2026-01-18: 0 contributions</title></rect><rect x="448" y="14" width="10" height="10" rx="3" fill="#ebedf0"><title>2026-01-19: 0 contributions</title></rect><rect x="448" y="28" width="10" height="10" rx="3" fill="#ebedf0"><title>2026-01-20: 0 contributions</title></rect><rect x="448" y="42" width="10" height="10" rx="3" fill="#ebedf0"><title>2026-01-21: 0 contributions</title></rect><rect x="448" y="56" width="10" height="10" rx="3" fill="#ebedf0"><title>2026-01-22: 0 contributions</title></rect><rect x="448" y="70" width="10" height="10" rx="3" fill="#ebedf0"><title>2026-01-23: 0 contributions</title></rect><rect x="448" y="84" width="10" height="10" rx="3" fill="#ebedf0"><title>2026-01-24: 0 contributions</title></rect><rect x="462" y="0" width="10" height="10" rx="3" fill="#ebedf0"><title>2026-01-25: 0 contributions</title></rect><rect x="462" y="14" width="10" height="10" rx="3" fill="#ebedf0"><title>2026-01-26: 0 contributions</title></rect><rect x="462" y="28" width="10" height="10" rx="3" fill="#ebedf0"><title>2026-01-27: 0 contributions</title></rect><rect x="462" y="42" width="10" height="10" rx="3" fill="#ebedf0"><title>2026-01-28: 0 contributions</title></rect><rect x="462" y="56" width="10" height="10" rx="3" fill="#ebedf0"><title>2026-01-29: 0 contributions</title></rect><rect x="462" y="70" width="10" height="10" rx="3" fill="#ebedf0"><title>2026-01-30: 0 contributions</title></rect><rect x="462" y="84" width="10" height="10" rx="3" fill="#ebedf0"><title>2026-01-31: 0 contributions</title></rect><rect x="476" y="0" width="10" height="10" rx="3" fill="#ebedf0"><title>2026-02-01: 0 contributions</title></rect><rect x="476" y="14" width="10" height="10" rx="3" fill="#ebedf0"><title>2026-02-02: 0 contributions</title></rect><rect x="476" y="28" width="10" height="10" rx="3" fill="#ebedf0"><title>2026-02-03: 0 contributions</title></rect><rect x="476" y="42" width="10" height="10" rx="3" fill="#ebedf0"><title>2026-02-04: 0 contributions</title></rect><rect x="476" y="56" width="10" height="10" rx="3" fill="#ebedf0"><title>2026-02-05: 0 contributions</title></rect><rect x="476" y="70" width="10" height="10" rx="3" fill="#ebedf0"><title>2026-02-06: 0 contributions</title></rect><rect x="476" y="84" width="10" height="10" rx="3" fill="#ebedf0"><title>2026-02-07: 0 contributions</title></rect><rect x="490" y="0" width="10" height="10" rx="3" fill="#ebedf0"><title>2026-02-08: 0 contributions</title></rect><rect x="490" y="14" width="10" height="10" rx="3" fill="#ebedf0"><title>2026-02-09: 0 contributions</title></rect><rect x="490" y="28" width="10" height="10" rx="3" fill="#ebedf0"><title>2026-02-10: 0 contributions</title></rect><rect x="490" y="42" width="10" height="10" rx="3" fill="#ebedf0"><title>2026-02-11: 0 contributions</title></rect><rect x="490" y="56" width="10" height="10" rx="3" fill="#9be9a8"><title>2026-02-12: 1 contributions</title></rect><rect x="490" y="70" width="10" height="10" rx="3" fill="#216e39"><title>2026-02-13: 7 contributions</title></rect><rect x="490" y="84" width="10" height="10" rx="3" fill="#ebedf0"><title>2026-02-14: 0 contributions</title></rect><rect x="504" y="0" width="10" height="10" rx="3" fill="#ebedf0"><title>2026-02-15: 0 contributions</title></rect><rect x="504" y="14" width="10" height="10" rx="3" fill="#ebedf0"><title>2026-02-16: 0 contributions</title></rect><rect x="504" y="28" width="10" height="10" rx="3" fill="#ebedf0"><title>2026-02-17: 0 contributions</title></rect><rect x="504" y="42" width="10" height="10" rx="3" fill="#ebedf0"><title>2026-02-18: 0 contributions</title></rect><rect x="504" y="56" width="10" height="10" rx="3" fill="#ebedf0"><title>2026-02-19: 0 contributions</title></rect><rect x="504" y="70" width="10" height="10" rx="3" fill="#ebedf0"><title>2026-02-20: 0 contributions</title></rect><rect x="504" y="84" width="10" height="10" rx="3" fill="#ebedf0"><title>2026-02-21: 0 contributions</title></rect><rect x="518" y="0" width="10" height="10" rx="3" fill="#ebedf0"><title>2026-02-22: 0 contributions</title></rect><rect x="518" y="14" width="10" height="10" rx="3" fill="#ebedf0"><title>2026-02-23: 0 contributions</title></rect><rect x="518" y="28" width="10" height="10" rx="3" fill="#ebedf0"><title>2026-02-24: 0 contributions</title></rect><rect x="518" y="42" width="10" height="10" rx="3" fill="#ebedf0"><title>2026-02-25: 0 contributions</title></rect><rect x="518" y="56" width="10" height="10" rx="3" fill="#ebedf0"><title>2026-02-26: 0 contributions</title></rect><rect x="518" y="70" width="10" height="10" rx="3" fill="#ebedf0"><title>2026-02-27: 0 contributions</title></rect><rect x="518" y="84" width="10" height="10" rx="3" fill="#ebedf0"><title>2026-02-28: 0 contributions</title></rect><rect x="532" y="0" width="10" height="10" rx="3" fill="#ebedf0"><title>2026-03-01: 0 contributions</title></rect><rect x="532" y="14" width="10" height="10" rx="3" fill="#ebedf0"><title>2026-03-02: 0 contributions</title></rect><rect x="532" y="28" width="10" height="10" rx="3" fill="#ebedf0"><title>2026-03-03: 0 contributions</title></rect><rect x="532" y="42" width="10" height="10" rx="3" fill="#ebedf0"><title>2026-03-04: 0 contributions</title></rect><rect x="532" y="56" width="10" height="10" rx="3" fill="#ebedf0"><title>2026-03-05: 0 contributions</title></rect><rect x="532" y="70" width="10" height="10" rx="3" fill="#ebedf0"><title>2026-03-06: 0 contributions</title></rect><rect x="532" y="84" width="10" height="10" rx="3" fill="#ebedf0"><title>2026-03-07: 0 contributions</title></rect><rect x="546" y="0" width="10" height="10" rx="3" fill="#ebedf0"><title>2026-03-08: 0 contributions</title></rect><rect x="546" y="14" width="10" height="10" rx="3" fill="#ebedf0"><title>2026-03-09: 0 contributions</title></rect><rect x="546" y="28" width="10" height="10" rx="3" fill="#ebedf0"><title>2026-03-10: 0 contributions</title></rect><rect x="546" y="42" width="10" height="10" rx="3" fill="#ebedf0"><title>2026-03-11: 0 contributions</title></rect><rect x="546" y="56" width="10" height="10" rx="3" fill="#ebedf0"><title>2026-03-12: 0 contributions</title></rect><rect x="546" y="70" width="10" height="10" rx="3" fill="#ebedf0"><title>2026-03-13: 0 contributions</title></rect><rect x="546" y="84" width="10" height="10" rx="3" fill="#ebedf0"><title>2026-03-14: 0 contributions</title></rect><rect x="560" y="0" width="10" height="10" rx="3" fill="#ebedf0"><title>2026-03-15: 0 contributions</title></rect><rect x="560" y="14" width="10" height="10" rx="3" fill="#ebedf0"><title>2026-03-16: 0 contributions</title></rect><rect x="560" y="28" width="10" height="10" rx="3" fill="#ebedf0"><title>2026-03-17: 0 contributions</title></rect><rect x="560" y="42" width="10" height="10" rx="3" fill="#ebedf0"><title>2026-03-18: 0 contributions</title></rect><rect x="560" y="56" width="10" height="10" rx="3" fill="#ebedf0"><title>2026-03-19: 0 contributions</title></rect><rect x="560" y="70" width="10" height="10" rx="3" fill="#ebedf0"><title>2026-03-20: 0 contributions</title></rect><rect x="560" y="84" width="10" height="10" rx="3" fill="#ebedf0"><title>2026-03-21: 0 contributions</title></rect><rect x="574" y="0" width="10" height="10" rx="3" fill="#ebedf0"><title>2026-03-22: 0 contributions</title></rect><rect x="574" y="14" width="10" height="10" rx="3" fill="#ebedf0"><title>2026-03-23: 0 contributions</title></rect><rect x="574" y="28" width="10" height="10" rx="3" fill="#ebedf0"><title>2026-03-24: 0 contributions</title></rect><rect x="574" y="42" width="10" height="10" rx="3" fill="#ebedf0"><title>2026-03-25: 0 contributions</title></rect><rect x="574" y="56" width="10" height="10" rx="3" fill="#ebedf0"><title>2026-03-26: 0 contributions</title></rect><rect x="574" y="70" width="10" height="10" rx="3" fill="#ebedf0"><title>2026-03-27: 0 contributions</title></rect><rect x="574" y="84" width="10" height="10" rx="3" fill="#ebedf0"><title>2026-03-28: 0 contributions</title></rect><rect x="588" y="0" width="10" height="10" rx="3" fill="#ebedf0"><title>2026-03-29: 0 contributions</title></rect><rect x="588" y="14" width="10" height="10" rx="3" fill="#ebedf0"><title>2026-03-30: 0 contributions</title></rect><rect x="588" y="28" width="10" height="10" rx="3" fill="#ebedf0"><title>2026-03-31: 0 contributions</title></rect><rect x="588" y="42" width="10" height="10" rx="3" fill="#ebedf0"><title>2026-04-01: 0 contributions</title></rect><rect x="588" y="56" width="10" height="10" rx="3" fill="#ebedf0"><title>2026-04-02: 0 contributions</title></rect><rect x="588" y="70" width="10" height="10" rx="3" fill="#ebedf0"><title>2026-04-03: 0 contributions</title></rect><rect x="588" y="84" width="10" height="10" rx="3" fill="#ebedf0"><title>2026-04-04: 0 contributions</title></rect><rect x="602" y="0" width="10" height="10" rx="3" fill="#ebedf0"><title>2026-04-05: 0 contributions</title></rect><rect x="602" y="14" width="10" height="10" rx="3" fill="#ebedf0"><title>2026-04-06: 0 contributions</title></rect><rect x="602" y="28" width="10" height="10" rx="3" fill="#ebedf0"><title>2026-04-07: 0 contributions</title></rect><rect x="602" y="42" width="10" height="10" rx="3" fill="#ebedf0"><title>2026-04-08: 0 contributions</title></rect><rect x="602" y="56" width="10" height="10" rx="3" fill="#ebedf0"><title>2026-04-09: 0 contributions</title></rect><rect x="602" y="70" width="10" height="10" rx="3" fill="#ebedf0"><title>2026-04-10: 0 contributions</title></rect><rect x="602" y="84" width="10" height="10" rx="3" fill="#ebedf0"><title>2026-04-11: 0 contributions</title></rect><rect x="616" y="0" width="10" height="10" rx="3" fill="#ebedf0"><title>2026-04-12: 0 contributions</title></rect><rect x="616" y="14" width="10" height="10" rx="3" fill="#ebedf0"><title>2026-04-13: 0 contributions</title></rect><rect x="616" y="28" width="10" height="10" rx="3" fill="#ebedf0"><title>2026-04-14: 0 contributions</title></rect><rect x="616" y="42" width="10" height="10" rx="3" fill="#ebedf0"><title>2026-04-15: 0 contributions</title></rect><rect x="616" y="56" width="10" height="10" rx="3" fill="#ebedf0"><title>2026-04-16: 0 contributions</title></rect><rect x="616" y="70" width="10" height="10" rx="3" fill="#ebedf0"><title>2026-04-17: 0 contributions</title></rect><rect x="616" y="84" width="10" height="10" rx="3" fill="#ebedf0"><title>2026-04-18: 0 contributions</title></rect><rect x="630" y="0" width="10" height="10" rx="3" fill="#ebedf0"><title>2026-04-19: 0 contributions</title></rect><rect x="630" y="14" width="10" height="10" rx="3" fill="#ebedf0"><title>2026-04-20: 0 contributions</title></rect><rect x="630" y="28" width="10" height="10" rx="3" fill="#ebedf0"><title>2026-04-21: 0 contributions</title></rect><rect x="630" y="42" width="10" height="10" rx="3" fill="#ebedf0"><title>2026-04-22: 0 contributions</title></rect><rect x="630" y="56" width="10" height="10" rx="3" fill="#ebedf0"><title>2026-04-23: 0 contributions</title></rect><rect x="630" y="70" width="10" height="10" rx="3" fill="#ebedf0"><title>2026-04-24: 0 contributions</title></rect><rect x="630" y="84" width="10" height="10" rx="3" fill="#ebedf0"><title>2026-04-25: 0 contributions</title></rect><rect x="644" y="0" width="10" height="10" rx="3" fill="#ebedf0"><title>2026-04-26: 0 contributions</title></rect><rect x="644" y="14" width="10" height="10" rx="3" fill="#ebedf0"><title>2026-04-27: 0 contributions</title></rect><rect x="644" y="28" width="10" height="10" rx="3" fill="#ebedf0"><title>2026-04-28: 0 contributions</title></rect><rect x="644" y="42" width="10" height="10" rx="3" fill="#ebedf0"><title>2026-04-29: 0 contributions</title></rect><rect x="644" y="56" width="10" height="10" rx="3" fill="#ebedf0"><title>2026-04-30: 0 contributions</title></rect><rect x="644" y="70" width="10" height="10" rx="3" fill="#ebedf0"><title>2026-05-01: 0 contributions</title></rect><rect x="644" y="84" width="10" height="10" rx="3" fill="#ebedf0"><title>2026-05-02: 0 contributions</title></rect><rect x="658" y="0" width="10" height="10" rx="3" fill="#ebedf0"><title>2026-05-03: 0 contributions</title></rect><rect x="658" y="14" width="10" height="10" rx="3" fill="#ebedf0"><title>2026-05-04: 0 contributions</title></rect><rect x="658" y="28" width="10" height="10" rx="3" fill="#ebedf0"><title>2026-05-05: 0 contributions</title></rect><rect x="658" y="42" width="10" height="10" rx="3" fill="#ebedf0"><title>2026-05-06: 0 contributions</title></rect><rect x="658" y="56" width="10" height="10" rx="3" fill="#ebedf0"><title>2026-05-07: 0 contributions</title></rect><rect x="658" y="70" width="10" height="10" rx="3" fill="#ebedf0"><title>2026-05-08: 0 contributions</title></rect><rect x="658" y="84" width="10" height="10" rx="3" fill="#ebedf0"><title>2026-05-09: 0 contributions</title></rect><rect x="672" y="0" width="10" height="10" rx="3" fill="#ebedf0"><title>2026-05-10: 0 contributions</title></rect><rect x="672" y="14" width="10" height="10" rx="3" fill="#ebedf0"><title>2026-05-11: 0 contributions</title></rect><rect x="672" y="28" width="10" height="10" rx="3" fill="#ebedf0"><title>2026-05-12: 0 contributions</title></rect><rect x="672" y="42" width="10" height="10" rx="3" fill="#ebedf0"><title>2026-05-13: 0 contributions</title></rect><rect x="672" y="56" width="10" height="10" rx="3" fill="#ebedf0"><title>2026-05-14: 0 contributions</title></rect><rect x="672" y="70" width="10" height="10" rx="3" fill="#ebedf0"><title>2026-05-15: 0 contributions</title></rect><rect x="672" y="84" width="10" height="10" rx="3" fill="#ebedf0"><title>2026-05-16: 0 contributions</title></rect><rect x="686" y="0" width="10" height="10" rx="3" fill="#ebedf0"><title>2026-05-17: 0 contributions</title></rect><rect x="686" y="14" width="10" height="10" rx="3" fill="#ebedf0"><title>2026-05-18: 0 contributions</title></rect><rect x="686" y="28" width="10" height="10" rx="3" fill="#ebedf0"><title>2026-05-19: 0 contributions</title></rect><rect x="686" y="42" width="10" height="10" rx="3" fill="#ebedf0"><title>2026-05-20: 0 contributions</title></rect><rect x="686" y="56" width="10" height="10" rx="3" fill="#ebedf0"><title>2026-05-21: 0 contributions</title></rect><rect x="686" y="70" width="10" height="10" rx="3" fill="#ebedf0"><title>2026-05-22: 0 contributions</title></rect><rect x="686" y="84" width="10" height="10" rx="3" fill="#ebedf0"><title>2026-05-23: 0 contributions</title></rect><rect x="700" y="0" width="10" height="10" rx="3" fill="#ebedf0"><title>2026-05-24: 0 contributions</title></rect><rect x="700" y="14" width="10" height="10" rx="3" fill="#ebedf0"><title>2026-05-25: 0 contributions</title></rect><rect x="700" y="28" width="10" height="10" rx="3" fill="#ebedf0"><title>2026-05-26: 0 contributions</title></rect><rect x="700" y="42" width="10" height="10" rx="3" fill="#ebedf0"><title>2026-05-27: 0 contributions</title></rect><rect x="700" y="56" width="10" height="10" rx="3" fill="#ebedf0"><title>2026-05-28: 0 contributions</title></rect><rect x="700" y="70" width="10" height="10" rx="3" fill="#ebedf0"><title>2026-05-29: 0 contributions</title></rect><rect x="700" y="84" width="10" height="10" rx="3" fill="#ebedf0"><title>2026-05-30: 0 contributions</title></rect><rect x="714" y="0" width="10" height="10" rx="3" fill="#ebedf0"><title>2026-05-31: 0 contributions</title></rect><rect x="714" y="14" width="10" height="10" rx="3" fill="#ebedf0"><title>2026-06-01: 0 contributions</title></rect><rect x="714" y="28" width="10" height="10" rx="3" fill="#ebedf0"><title>2026-06-02: 0 contributions</title></rect><rect x="714" y="42" width="10" height="10" rx="3" fill="#ebedf0"><title>2026-06-03: 0 contributions</title></rect><rect x="714" y="56" width="10" height="10" rx="3" fill="#ebedf0"><title>2026-06-04: 0 contributions</title></rect><rect x="714" y="70" width="10" height="10" rx="3" fill="#9be9a8"><title>2026-06-05: 1 contributions</title></rect><rect x="714" y="84" width="10" height="10" rx="3" fill="#40c463"><title>2026-06-06: 3 contributions</title></rect><rect x="728" y="0" width="10" height="10" rx="3" fill="#216e39"><title>2026-06-07: 6 contributions</title></rect><rect x="728" y="14" width="10" height="10" rx="3" fill="#ebedf0"><title>2026-06-08: 0 contributions</title></rect>
    </g>
    <text x="0" y="268" fill="#57606a" font-family="Inter, Segoe UI, Arial, sans-serif" font-size="14" font-weight="700">updated 2026-06-08 07:09 UTC</text>
    <g transform="translate(610 254)">
      <text x="0" y="12" fill="#57606a" font-family="Inter, Segoe UI, Arial, sans-serif" font-size="13" font-weight="700">Less</text>
      <g transform="translate(37 0)"><rect x="0" y="0" width="14" height="14" rx="3" fill="#ebedf0"/><rect x="20" y="0" width="14" height="14" rx="3" fill="#9be9a8"/><rect x="40" y="0" width="14" height="14" rx="3" fill="#40c463"/><rect x="60" y="0" width="14" height="14" rx="3" fill="#30a14e"/><rect x="80" y="0" width="14" height="14" rx="3" fill="#216e39"/></g>
      <text x="147" y="12" fill="#57606a" font-family="Inter, Segoe UI, Arial, sans-serif" font-size="13" font-weight="700">More</text>
    </g>
  </g>
  <path d="M838 44V299" stroke="#d0d7de"/>
  <g transform="translate(884 52)">
    <text x="0" y="18" fill="#57606a" font-family="SFMono-Regular, Consolas, Liberation Mono, monospace" font-size="14" font-weight="700">activity.mix</text>
    <text x="0" y="50" fill="#0969da" font-family="SFMono-Regular, Consolas, Liberation Mono, monospace" font-size="17" font-weight="800">$ gh overview --year</text>
    <g transform="translate(0 80)">

    <g transform="translate(0 0)">
      <text x="0" y="14" fill="#24292f" font-family="Inter, Segoe UI, Arial, sans-serif" font-size="14" font-weight="800">Commits</text>
      <text x="260" y="14" fill="#57606a" font-family="Inter, Segoe UI, Arial, sans-serif" font-size="13" font-weight="700" text-anchor="end">100%</text>
      <rect x="0" y="24" width="310" height="9" rx="4.5" fill="#f6f8fa" stroke="#d0d7de"/>
      <rect x="1" y="25" width="310" height="7" rx="3.5" fill="#3fb950"/>
    </g>

    <g transform="translate(0 45)">
      <text x="0" y="14" fill="#24292f" font-family="Inter, Segoe UI, Arial, sans-serif" font-size="14" font-weight="800">Pull requests</text>
      <text x="260" y="14" fill="#57606a" font-family="Inter, Segoe UI, Arial, sans-serif" font-size="13" font-weight="700" text-anchor="end">0%</text>
      <rect x="0" y="24" width="310" height="9" rx="4.5" fill="#f6f8fa" stroke="#d0d7de"/>
      <rect x="1" y="25" width="3" height="7" rx="3.5" fill="#58a6ff"/>
    </g>

    <g transform="translate(0 90)">
      <text x="0" y="14" fill="#24292f" font-family="Inter, Segoe UI, Arial, sans-serif" font-size="14" font-weight="800">Code review</text>
      <text x="260" y="14" fill="#57606a" font-family="Inter, Segoe UI, Arial, sans-serif" font-size="13" font-weight="700" text-anchor="end">0%</text>
      <rect x="0" y="24" width="310" height="9" rx="4.5" fill="#f6f8fa" stroke="#d0d7de"/>
      <rect x="1" y="25" width="3" height="7" rx="3.5" fill="#bc8cff"/>
    </g>

    <g transform="translate(0 135)">
      <text x="0" y="14" fill="#24292f" font-family="Inter, Segoe UI, Arial, sans-serif" font-size="14" font-weight="800">Issues</text>
      <text x="260" y="14" fill="#57606a" font-family="Inter, Segoe UI, Arial, sans-serif" font-size="13" font-weight="700" text-anchor="end">0%</text>
      <rect x="0" y="24" width="310" height="9" rx="4.5" fill="#f6f8fa" stroke="#d0d7de"/>
      <rect x="1" y="25" width="3" height="7" rx="3.5" fill="#d29922"/>
    </g>
    </g>
  </g>
</svg>
