<svg width="1200" height="260" viewBox="0 0 1200 260" fill="none" xmlns="http://www.w3.org/2000/svg" role="img" aria-labelledby="title desc">
  <title id="title">TiKVaWeb profile header (dark)</title>
  <desc id="desc">Minimal GitHub profile header for CTO and Python engineer TiKVaWeb.</desc>
  <defs>
    <pattern id="grid" width="40" height="40" patternUnits="userSpaceOnUse">
      <path d="M40 0H0V40" stroke="#21262d" stroke-opacity="0.45"/>
    </pattern>
    <linearGradient id="line" x1="52" y1="0" x2="900" y2="0" gradientUnits="userSpaceOnUse">
      <stop stop-color="#58a6ff"/>
      <stop offset="1" stop-color="#bc8cff"/>
    </linearGradient>
  </defs>
  <rect x="1" y="1" width="1198" height="258" rx="16" fill="#0d1117" stroke="#30363d"/>
  <rect x="1" y="1" width="1198" height="258" rx="16" fill="url(#grid)" opacity="0.24"/>
  <path d="M64 78H214L252 104H492" stroke="url(#line)" stroke-width="2" stroke-opacity="0.65"/>
  <circle cx="64" cy="62" r="5" fill="#58a6ff"/>
  <text x="88" y="68" fill="#8b949e" font-family="SFMono-Regular, Consolas, Liberation Mono, monospace" font-size="15" font-weight="700">TiKVaWeb</text>
  <text x="64" y="136" fill="#f0f6fc" font-family="Inter, Segoe UI, Arial, sans-serif" font-size="46" font-weight="800">CTO &amp; Python Engineer</text>
  <text x="64" y="174" fill="#8b949e" font-family="Inter, Segoe UI, Arial, sans-serif" font-size="21" font-weight="500">scalable backend platforms, product architecture, engineering leadership</text>
  <g transform="translate(64 196)">
    <g transform="translate(0 0)"><title>Python</title><rect width="46" height="36" rx="12" fill="#161b22" stroke="#30363d"/><rect x="8" y="7" width="30" height="22" rx="7" fill="#3572A5"/><text x="15" y="23" fill="#ffffff" font-family="SFMono-Regular, Consolas, Liberation Mono, monospace" font-size="11" font-weight="800">Py</text></g>
    <g transform="translate(58 0)"><title>Go</title><rect width="46" height="36" rx="12" fill="#161b22" stroke="#30363d"/><rect x="8" y="7" width="30" height="22" rx="7" fill="#00ADD8"/><text x="14" y="23" fill="#ffffff" font-family="SFMono-Regular, Consolas, Liberation Mono, monospace" font-size="11" font-weight="800">Go</text></g>
    <g transform="translate(116 0)"><title>FastAPI</title><rect width="46" height="36" rx="12" fill="#161b22" stroke="#30363d"/><rect x="8" y="7" width="30" height="22" rx="7" fill="#009688"/><text x="12" y="23" fill="#ffffff" font-family="SFMono-Regular, Consolas, Liberation Mono, monospace" font-size="10" font-weight="800">API</text></g>
    <g transform="translate(174 0)"><title>PostgreSQL</title><rect width="46" height="36" rx="12" fill="#161b22" stroke="#30363d"/><rect x="8" y="7" width="30" height="22" rx="7" fill="#4169E1"/><text x="12" y="23" fill="#ffffff" font-family="SFMono-Regular, Consolas, Liberation Mono, monospace" font-size="10" font-weight="800">SQL</text></g>
    <g transform="translate(232 0)"><title>Redis</title><rect width="46" height="36" rx="12" fill="#161b22" stroke="#30363d"/><rect x="8" y="7" width="30" height="22" rx="7" fill="#DC382D"/><text x="15" y="23" fill="#ffffff" font-family="SFMono-Regular, Consolas, Liberation Mono, monospace" font-size="11" font-weight="800">Re</text></g>
    <g transform="translate(290 0)"><title>RabbitMQ</title><rect width="46" height="36" rx="12" fill="#161b22" stroke="#30363d"/><rect x="8" y="7" width="30" height="22" rx="7" fill="#FF6600"/><text x="15" y="23" fill="#ffffff" font-family="SFMono-Regular, Consolas, Liberation Mono, monospace" font-size="11" font-weight="800">MQ</text></g>
    <g transform="translate(348 0)"><title>Kafka</title><rect width="46" height="36" rx="12" fill="#161b22" stroke="#30363d"/><rect x="8" y="7" width="30" height="22" rx="7" fill="#231F20"/><text x="15" y="23" fill="#ffffff" font-family="SFMono-Regular, Consolas, Liberation Mono, monospace" font-size="11" font-weight="800">Kf</text></g>
    <g transform="translate(406 0)"><title>Kubernetes</title><rect width="46" height="36" rx="12" fill="#161b22" stroke="#30363d"/><rect x="8" y="7" width="30" height="22" rx="7" fill="#326CE5"/><text x="11" y="23" fill="#ffffff" font-family="SFMono-Regular, Consolas, Liberation Mono, monospace" font-size="10" font-weight="800">K8s</text></g>
    <g transform="translate(464 0)"><title>Docker</title><rect width="46" height="36" rx="12" fill="#161b22" stroke="#30363d"/><rect x="8" y="7" width="30" height="22" rx="7" fill="#2496ED"/><text x="15" y="23" fill="#ffffff" font-family="SFMono-Regular, Consolas, Liberation Mono, monospace" font-size="11" font-weight="800">Dk</text></g>
    <g transform="translate(522 0)"><title>CI/CD</title><rect width="46" height="36" rx="12" fill="#161b22" stroke="#30363d"/><rect x="8" y="7" width="30" height="22" rx="7" fill="#BC8CFF"/><text x="15" y="23" fill="#ffffff" font-family="SFMono-Regular, Consolas, Liberation Mono, monospace" font-size="11" font-weight="800">CI</text></g>
  </g>
  <g transform="translate(852 52)">
    <rect x="0" y="0" width="284" height="154" rx="12" fill="#161b22" stroke="#30363d"/>
    <rect x="0" y="0" width="284" height="34" rx="12" fill="#0d1117" stroke="#30363d"/>
    <circle cx="18" cy="17" r="5" fill="#f85149"/>
    <circle cx="36" cy="17" r="5" fill="#d29922"/>
    <circle cx="54" cy="17" r="5" fill="#3fb950"/>
    <text x="78" y="22" fill="#8b949e" font-family="SFMono-Regular, Consolas, Liberation Mono, monospace" font-size="13" font-weight="700">focus.runtime</text>
    <text x="22" y="64" fill="#58a6ff" font-family="SFMono-Regular, Consolas, Liberation Mono, monospace" font-size="16" font-weight="700">$ boot focus</text>
    <text x="22" y="95" fill="#f0f6fc" font-family="SFMono-Regular, Consolas, Liberation Mono, monospace" font-size="15">status: reliable systems</text>
    <text x="22" y="123" fill="#f0f6fc" font-family="SFMono-Regular, Consolas, Liberation Mono, monospace" font-size="15">scope: backend platforms</text>
  </g>
</svg>
