<svg width="1200" height="206" viewBox="0 0 1200 206" fill="none" xmlns="http://www.w3.org/2000/svg" role="img" aria-labelledby="title desc">
  <title id="title">Language mix (light)</title>
  <desc id="desc">Local language card for TiKVaWeb public repositories.</desc>
  <rect x="1" y="1" width="1198" height="204" rx="14" fill="#ffffff" stroke="#d0d7de"/>
  <text x="48" y="46" fill="#24292f" font-family="Inter, Segoe UI, Arial, sans-serif" font-size="22" font-weight="800">Language mix</text>
  <text x="48" y="70" fill="#57606a" font-family="Inter, Segoe UI, Arial, sans-serif" font-size="14">computed from public repositories</text>
  <rect x="48" y="86" width="1010" height="16" rx="8" fill="#f6f8fa" stroke="#d0d7de"/>
  <rect x="48" y="86" width="971" height="16" rx="8" fill="#3572A5"/><rect x="1019" y="86" width="39" height="16" rx="8" fill="#427819"/>
  <g transform="translate(48 122)">
    <rect x="0" y="0" width="210" height="58" rx="12" fill="#f6f8fa" stroke="#d0d7de"/>
    <rect x="16" y="14" width="34" height="30" rx="8" fill="#3572A5"/>
    <text x="25" y="35" fill="#ffffff" font-family="SFMono-Regular, Consolas, Liberation Mono, monospace" font-size="13" font-weight="800">Py</text>
    <text x="66" y="25" fill="#24292f" font-family="Inter, Segoe UI, Arial, sans-serif" font-size="16" font-weight="800">Python</text>
    <text x="66" y="46" fill="#57606a" font-family="Inter, Segoe UI, Arial, sans-serif" font-size="13">96.1% public code</text>
  </g>
  <g transform="translate(286 122)">
    <rect x="0" y="0" width="210" height="58" rx="12" fill="#f6f8fa" stroke="#d0d7de"/>
    <rect x="16" y="14" width="34" height="30" rx="8" fill="#427819"/>
    <text x="25" y="35" fill="#ffffff" font-family="SFMono-Regular, Consolas, Liberation Mono, monospace" font-size="13" font-weight="800">Mk</text>
    <text x="66" y="25" fill="#24292f" font-family="Inter, Segoe UI, Arial, sans-serif" font-size="16" font-weight="800">Makefile</text>
    <text x="66" y="46" fill="#57606a" font-family="Inter, Segoe UI, Arial, sans-serif" font-size="13">3.9% public code</text>
  </g>
</svg>
